<svg width="753" height="143" viewBox="0 0 753 143" fill="none" xmlns="http://www.w3.org/2000/svg">
<path d="M743.1 35.5C736.9 24.6 728.4 16 717.5 9.6C706.6 3.2 694.4 0 681 0H629.8C616.3 0 604.1 3.2 593.3 9.6C582.4 16 573.9 24.6 567.7 35.5C561.5 46.4 558.4 58.4 558.4 71.4C558.4 84.4 561.5 96.4 567.7 107.3C573.9 118.2 582.4 126.8 593.3 133.2C604.2 139.6 616.4 142.8 629.8 142.8H681C694.5 142.8 706.7 139.6 717.5 133.2C728.4 126.8 736.9 118.2 743.1 107.3C749.3 96.4 752.4 84.4 752.4 71.4C752.4 58.4 749.3 46.3 743.1 35.5ZM724 96.4C719.6 104 713.7 109.9 706.1 114.4C698.5 118.8 690.1 121 680.9 121C671.6 121 663.2 118.8 655.7 114.4C648.1 110 642.2 104 637.8 96.4C633.4 88.8 631.3 80.5 631.3 71.4C631.3 62.3 633.5 53.9 637.8 46.4C642.2 38.8 648.1 32.9 655.7 28.4C663.3 24 671.7 21.8 680.9 21.8C690.2 21.8 698.6 24 706.1 28.4C713.7 32.8 719.6 38.8 724 46.4C728.4 54 730.5 62.3 730.5 71.4C730.6 80.5 728.4 88.8 724 96.4Z" fill="white"/>
<path d="M126.1 65.5C116.3 65.5 108.9 65.3 104 64.9C99 64.5 94.4 63.9 90 63.1C86.1 62.3 82.6 61.9 79.6 61.9C75.4 61.9 72 63.2 69.6 65.9C67.2 68.6 65.9 71.8 65.9 75.6C65.9 79.1 67.1 82.2 69.6 84.9C72 87.6 75.4 88.9 79.6 88.9C85.3 88.9 92 87.2 99 86.6C102.4 86.3 107.1 86.1 113.1 86.1V104.7C109 109.7 103.5 113.7 96.5 116.4C89.5 119.2 81.9 120.6 73.7 120.6C64.2 120.6 55.7 118.5 48.4 114.4C41.1 110.2 35.3 104.4 31.3 96.9C27.2 89.4 25.2 80.9 25.2 71.4C25.2 61.9 27.2 53.4 31.1 46.1C35 38.8 40.6 33.1 47.7 29.1C54.8 25.1 63 23.1 72.3 23.1C82.5 23.1 89.9 24.9 96.2 29.2C105.1 35.4 105.8 42 111.9 44.8C120.4 48.7 126.6 43.5 127.8 42.5C130.9 39.6 132.3 36.2 131.9 32.2C131.5 28.2 129.6 24.3 126.2 20.7C120.8 15.1 113.4 10.4 104.1 6.49999C94.6 2.29999 84.1 0.299988 72.4 0.299988C58.9 0.299988 46.7 3.29999 35.7 9.29999C24.7 15.3 16 23.7 9.6 34.5C3.2 45.3 0 57.6 0 71.3C0 85 3.2 97.3 9.6 108.1C16 118.9 24.7 127.4 35.8 133.4C46.9 139.5 59.2 142.5 72.6 142.5C85.5 142.5 97.3 140.2 108 135.6C118.7 131 127.2 124 133.6 114.8C136 111.1 137.3 106.5 137.3 100.9V78.1C137.3 74.3 136.3 71.2 134.2 68.9C132.2 66.6 129.5 65.5 126.1 65.5Z" fill="white"/>
<path d="M208 82.2C218 82.8 219.1 84.6 228.3 84.6C232.6 84.6 236 83.4 238.7 81C241.4 78.5 242.7 75.3 242.7 71.3C242.7 67.4 241.4 64.1 238.7 61.5C236 58.9 232.6 57.6 228.4 57.6C219.2 57.6 218.2 59.6 208.3 60.3C204.1 60.6 198.2 60.7 190.4 60.7V24.2C198.4 24.1 204.9 24.1 209.8 24.3C214.7 24.5 218.8 24.8 222.2 25.5C232.9 27.8 237.2 30.1 245.2 30.1C249.7 30.1 253.3 28.9 255.9 26.4C258.5 23.9 259.9 20.6 259.9 16.4C259.9 11.9 258.5 8.39999 255.6 5.99999C252.7 3.59999 248.7 2.29999 243.6 2.29999H177.1C173.8 2.29999 171.2 3.29999 169.2 5.29999C167.2 7.29999 166.2 9.79999 166.2 13V130C166.2 133.1 167.2 135.7 169.2 137.7C171.2 139.7 173.8 140.7 177.1 140.7H243.6C248.9 140.7 253 139.4 255.7 136.9C258.5 134.4 259.9 130.9 259.9 126.6C259.9 122.4 258.6 119 255.9 116.4C253.2 113.8 249.7 112.5 245.2 112.5C236.6 112.5 231.5 116.7 215.9 118.2C210.3 118.8 201.8 118.9 190.5 118.8V81.8C197.9 81.8 203.7 81.9 208 82.2Z" fill="white"/>
<path d="M399.9 98.1C396.2 95.1 392.3 94 388.1 94.8C377.7 96.8 377.8 106.5 368.9 113.2C362.8 117.8 354.7 120.1 344.6 120.1C335.9 120.1 328.1 118.1 321.3 114C314.5 109.9 309.2 104.2 305.5 96.8C301.8 89.4 299.9 80.9 299.9 71.4C299.9 61.9 301.8 53.4 305.5 46.1C309.2 38.8 314.5 33 321.2 29C327.9 25 335.7 22.9 344.6 22.9C349.4 22.9 353.8 23.2 357.7 24.5C377.6 31.5 373 41 382.9 46C385.4 47.3 388 47.8 390.8 47.6C393.5 47.4 396.1 46.3 398.6 44.2C402 41.5 403.5 38 403.2 33.8C402.9 29.6 401 25.5 397.6 21.6C392.6 15.6 385.5 10.6 376.5 6.49999C367.4 2.39999 357.1 0.399994 345.6 0.399994C332.4 0.399994 320.4 3.39999 309.7 9.29999C298.9 15.2 290.5 23.6 284.3 34.4C278.1 45.2 275 57.6 275 71.5C275 85.4 278.1 97.7 284.3 108.5C290.5 119.3 299 127.7 309.7 133.7C320.4 139.7 332.4 142.7 345.6 142.7C357.6 142.7 368.1 140.6 377.2 136.4C386.3 132.2 393.6 126.9 399 120.7C402.7 116.8 404.6 112.7 404.8 108.5C404.9 104.1 403.3 100.7 399.9 98.1Z" fill="white"/>
<path d="M460.7 15.2C460.7 10.1 459.4 7.09999 456.8 4.39999C454.2 1.69999 450.4 0.299988 445.4 0.299988C440.6 0.299988 436.9 1.89999 434.3 5.09999C431.6 8.29999 430.3 12.2 430.3 16.8V125.8C430.3 130.4 431.6 134.3 434.3 137.5C437 140.7 440.7 142.3 445.4 142.3C450.4 142.3 454.2 140.9 456.8 138.2C459.4 135.5 460.7 131.9 460.7 127.6C460.6 124.3 460 121 459.1 116.8C457.5 109.7 456.5 106.2 455.7 98.7C455.1 93.1 454.8 83.9 454.8 71.2C454.8 58.5 455.1 49.4 455.7 43.7C457.3 29 460.7 23.4 460.7 15.2Z" fill="white"/>
<path d="M512.2 92.8C507.1 88.1 499.8 80.6 490.3 70.5C500.6 59.5 508.5 51.6 513.9 46.7C519.3 41.9 524.3 37.7 529.1 34.1C533.6 30.8 537.1 27.9 539.5 25.3C542.5 21.9 544 18.4 544.1 14.7C544.2 11 542.9 7.89998 540.3 5.29998C537 2.19998 533.4 0.799983 529.3 1.19998C525.2 1.59998 521.3 3.89998 517.5 8.09998L467.9 62C465 65.3 463.6 68.3 463.6 71.2C463.6 74.2 465 77.3 467.9 80.4L519.8 135.1C523.6 139.2 527.6 141.4 531.7 141.7C535.8 142 539.6 140.7 542.8 137.5C549.4 130.9 546.7 122.5 541.7 117.1C537.2 112.5 530.8 109.9 512.2 92.8Z" fill="white"/>
<g clip-path="url(#clip0_3416_3)">
<path d="M681.602 39.3C673.082 55.5948 655.6 64.8392 655.6 79.4224C655.6 85.0362 659.643 92.0115 668.709 92.0115C673.692 92.0115 677.09 89.696 679.14 87.6127C675.601 95.8673 669.489 103.304 669.489 103.304H693.711C693.711 103.304 687.599 95.8708 684.06 87.6127C686.113 89.696 689.508 92.0115 694.491 92.0115C703.553 92.0115 707.6 85.0362 707.6 79.4224C707.6 64.8392 690.118 55.5948 681.598 39.3H681.602Z" fill="white"/>
</g>
<defs>
<clipPath id="clip0_3416_3">
<rect width="52" height="64" fill="white" transform="translate(655.6 39.3)"/>
</clipPath>
</defs>
</svg>
